<?xml version="1.0" standalone="no"?>
<!DOCTYPE svg PUBLIC "-//W3C//DTD SVG 20010904//EN"
 "http://www.w3.org/TR/2001/REC-SVG-20010904/DTD/svg10.dtd">
<svg version="1.0" xmlns="http://www.w3.org/2000/svg"
 width="581.000000pt" height="581.000000pt" viewBox="0 0 581.000000 581.000000"
 preserveAspectRatio="xMidYMid meet">
<metadata>
Created by potrace 1.14, written by Peter Selinger 2001-2017
</metadata>
<g transform="translate(0.000000,581.000000) scale(0.100000,-0.100000)"
fill="#000000" stroke="none">
<path d="M2518 4543 c-43 -2 -78 -8 -78 -13 0 -6 -9 -6 -22 -1 -13 5 -33 5
-46 0 -14 -5 -21 -5 -17 1 3 5 -7 5 -24 -1 -17 -6 -36 -9 -43 -6 -7 2 -22 -3
-32 -12 -16 -13 -18 -13 -11 -1 7 13 6 13 -7 2 -11 -9 -18 -10 -23 -2 -3 6
-10 8 -15 5 -5 -3 -28 -8 -52 -11 -24 -4 -44 -10 -46 -14 -1 -4 -16 -6 -32 -4
-17 2 -30 -1 -30 -7 0 -6 -7 -6 -20 1 -11 6 -20 7 -20 2 0 -5 -6 -9 -12 -10
-20 -1 -42 -7 -53 -13 -5 -3 -20 -4 -32 -3 -13 0 -23 -2 -23 -5 0 -4 -10 -7
-22 -8 -13 -1 -34 -4 -48 -8 -14 -4 -31 -7 -37 -7 -7 -1 -13 -4 -13 -8 0 -3
-9 -7 -20 -8 -11 -1 -28 -2 -37 -3 -10 -1 -24 -6 -30 -12 -7 -5 -13 -7 -13 -3
0 3 -16 -1 -37 -9 -20 -8 -38 -13 -41 -10 -3 3 -11 0 -18 -5 -6 -6 -20 -13
-30 -15 -11 -2 -33 -8 -51 -14 -17 -5 -34 -7 -37 -3 -3 3 -6 0 -6 -7 0 -7 -4
-10 -9 -6 -5 3 -15 -1 -23 -8 -7 -8 -19 -12 -26 -9 -6 2 -12 0 -12 -5 0 -6 -6
-10 -12 -11 -62 -9 -87 -16 -82 -23 3 -5 -2 -9 -10 -9 -25 0 -30 -2 -51 -16
-11 -8 -27 -14 -37 -14 -10 0 -18 -4 -18 -10 0 -5 -3 -9 -7 -8 -5 1 -21 -4
-36 -10 -16 -7 -33 -12 -38 -12 -5 0 -9 -4 -9 -10 0 -5 -9 -10 -19 -10 -11 0
-23 -5 -26 -10 -4 -6 -11 -8 -16 -5 -5 4 -9 1 -9 -6 0 -7 -3 -9 -6 -6 -4 4
-19 -2 -34 -13 -15 -11 -30 -17 -34 -13 -3 3 -6 1 -6 -5 0 -7 -3 -11 -7 -10
-5 1 -32 -10 -60 -25 -29 -15 -56 -28 -60 -29 -5 0 -13 -8 -20 -17 -6 -9 -15
-13 -19 -9 -4 4 -17 -3 -28 -15 -12 -13 -28 -21 -35 -19 -8 3 -11 0 -7 -7 5
-7 -1 -11 -14 -11 -12 0 -18 -4 -15 -10 3 -5 0 -10 -8 -10 -8 0 -25 -10 -38
-22 -14 -13 -29 -25 -34 -27 -6 -2 -16 -6 -22 -8 -7 -3 -13 -11 -13 -18 0 -7
-11 -16 -25 -19 -14 -4 -23 -11 -20 -16 3 -5 -4 -11 -15 -15 -11 -4 -18 -10
-15 -15 3 -4 -5 -10 -16 -13 -12 -3 -18 -10 -14 -16 3 -6 -1 -11 -9 -11 -9 0
-16 -6 -16 -14 0 -8 -8 -17 -17 -20 -10 -3 -27 -19 -38 -35 -10 -16 -22 -28
-26 -25 -4 2 -13 -9 -21 -26 -7 -16 -17 -30 -23 -30 -5 0 -21 -18 -35 -40 -13
-22 -28 -40 -32 -40 -4 0 -8 -4 -8 -9 0 -5 -17 -36 -38 -68 -21 -32 -44 -71
-52 -88 -8 -16 -21 -36 -28 -43 -7 -8 -10 -18 -7 -23 4 -5 1 -9 -5 -9 -7 0
-10 -7 -6 -15 3 -8 2 -15 -3 -15 -7 0 -19 -29 -25 -60 -1 -3 -4 -10 -8 -15
-36 -56 -50 -405 -22 -529 19 -82 56 -186 66 -186 4 0 8 -6 8 -13 0 -19 24
-67 33 -67 5 0 5 -4 2 -10 -3 -5 -1 -10 5 -10 6 0 9 -4 6 -9 -3 -5 1 -12 10
-15 8 -3 12 -10 9 -16 -3 -5 -1 -10 4 -10 6 0 11 -7 11 -15 0 -8 5 -15 10 -15
6 0 10 -7 10 -15 0 -8 5 -15 10 -15 6 0 10 -6 10 -13 0 -7 9 -19 19 -27 11 -7
18 -17 15 -22 -3 -4 2 -11 10 -14 9 -3 16 -10 16 -15 0 -16 43 -58 53 -52 6 3
7 1 3 -6 -5 -7 11 -31 42 -61 27 -28 47 -52 44 -55 -3 -3 -1 -5 5 -5 6 0 22
-12 37 -26 14 -15 26 -24 26 -20 0 3 13 -8 29 -24 15 -17 33 -30 40 -30 6 0
11 -5 11 -10 0 -6 11 -15 25 -22 13 -6 22 -14 20 -19 -3 -4 4 -10 15 -14 11
-3 35 -18 52 -33 18 -15 28 -20 23 -12 -8 13 -7 13 11 0 10 -8 25 -21 32 -28
8 -7 18 -10 23 -7 5 4 9 2 9 -3 0 -9 39 -30 51 -28 4 0 15 -6 25 -15 11 -9 29
-20 42 -23 12 -4 22 -12 22 -17 0 -6 5 -7 10 -4 6 3 10 1 10 -4 0 -6 3 -10 8
-9 14 4 52 -13 52 -23 0 -6 4 -8 9 -4 5 3 12 1 16 -5 4 -6 11 -7 17 -4 6 4 13
2 17 -4 3 -6 13 -12 21 -14 8 -2 21 -9 29 -16 7 -7 20 -11 27 -8 8 3 14 2 14
-3 0 -5 10 -12 23 -16 12 -4 25 -8 30 -10 18 -6 22 -7 30 -6 4 0 7 -3 7 -9 0
-5 9 -10 19 -10 11 0 23 -5 26 -11 4 -6 13 -8 21 -5 8 3 14 1 14 -5 0 -6 4 -8
9 -4 5 3 12 1 15 -3 3 -5 26 -15 51 -22 25 -7 45 -16 45 -19 0 -4 11 -8 26 -9
14 -1 33 -6 43 -12 10 -5 21 -6 25 -3 3 3 6 1 6 -6 0 -7 4 -10 10 -6 5 3 17 1
27 -4 31 -16 57 -24 76 -22 9 1 17 -3 17 -9 0 -6 5 -8 10 -5 6 3 15 3 22 -1 7
-4 26 -9 42 -11 17 -2 32 -7 35 -11 6 -7 29 -11 79 -14 12 -1 22 -6 22 -11 0
-5 7 -7 15 -4 8 4 17 2 20 -3 3 -5 13 -8 23 -8 9 0 35 -3 57 -7 22 -3 50 -7
63 -8 12 0 22 -4 22 -7 0 -3 10 -7 23 -8 12 -1 42 -4 67 -7 25 -4 59 -8 76 -9
17 -2 35 -5 40 -8 5 -3 26 -5 47 -4 21 2 40 -1 43 -5 3 -5 28 -8 57 -7 29 1
57 -1 62 -4 6 -3 60 -6 122 -6 61 0 116 -3 122 -7 6 -3 11 -3 11 2 0 4 123 8
272 9 296 1 388 4 402 12 8 5 84 13 144 15 12 1 22 3 22 7 0 3 15 5 33 6 30 1
60 6 117 20 14 3 42 6 63 7 20 0 37 4 37 8 0 4 8 8 18 8 17 0 57 8 57 12 0 2
28 7 70 13 17 2 31 5 33 6 1 1 7 4 12 5 6 1 13 4 18 5 4 2 12 4 17 4 6 1 19 7
30 13 11 6 29 9 40 7 11 -1 22 1 25 6 3 5 17 11 30 13 14 3 38 10 53 16 16 6
33 9 38 5 5 -3 9 0 9 6 0 6 4 9 8 6 5 -3 21 2 36 10 16 7 35 14 42 14 8 0 14
4 14 10 0 5 7 7 15 4 8 -4 15 -1 15 5 0 6 3 10 8 10 4 -1 9 0 12 1 13 4 47 12
63 13 9 1 17 5 17 8 0 8 40 24 53 21 4 -1 7 3 7 9 0 5 4 8 8 5 4 -3 42 12 84
33 42 20 74 32 71 27 -4 -6 3 -2 15 8 12 11 22 15 22 10 0 -5 4 -4 8 1 13 18
47 42 38 26 -9 -14 44 16 55 32 3 5 9 8 13 8 3 -1 19 5 35 13 16 9 31 13 33
10 3 -2 11 2 18 11 7 8 19 15 26 15 8 0 14 5 14 10 0 6 9 10 20 10 10 0 23 6
27 13 4 7 39 33 78 57 38 25 82 57 97 72 15 15 28 25 28 22 0 -3 38 32 84 79
46 47 87 83 90 80 6 -6 10 14 6 32 -1 5 1 7 5 3 8 -7 45 27 45 42 0 6 5 10 11
10 5 0 8 3 6 8 -5 10 30 42 38 34 4 -4 6 -2 5 3 -5 21 1 35 22 55 12 11 18 20
14 20 -4 0 2 9 13 21 11 12 17 28 14 37 -4 9 -2 13 3 9 13 -8 87 130 78 145
-4 6 -3 8 3 5 12 -7 35 47 26 57 -4 3 -1 6 6 6 7 0 12 8 11 18 -3 26 11 62 23
62 8 0 8 3 0 11 -8 8 -8 20 -2 36 5 13 11 46 13 73 2 26 6 53 10 58 3 6 2 13
-4 17 -6 4 -7 13 -2 23 10 20 10 33 -1 50 -5 6 -4 12 2 12 6 0 6 12 1 33 -5
17 -11 59 -13 92 -3 33 -6 60 -6 60 -1 0 -48 129 -55 150 -9 31 -42 95 -48 95
-5 0 -8 9 -8 19 0 11 -4 21 -9 23 -5 2 -11 9 -13 17 -2 8 -11 24 -20 35 -10
12 -17 25 -17 29 0 5 -9 17 -20 26 -11 10 -18 21 -14 25 3 3 0 6 -7 6 -7 0
-11 3 -7 6 8 9 -16 33 -27 26 -5 -3 -6 -1 -3 5 3 5 -10 27 -29 48 -19 21 -34
43 -34 47 0 5 -4 6 -10 3 -5 -3 -10 -1 -10 4 0 6 -13 24 -30 39 -16 16 -27 32
-23 35 3 4 -1 7 -10 7 -10 0 -17 8 -17 17 0 9 -3 13 -7 10 -3 -4 -19 6 -34 22
-15 16 -30 27 -33 23 -3 -3 -6 2 -6 11 0 9 -6 17 -14 17 -8 0 -24 12 -35 27
-12 14 -24 23 -27 20 -3 -3 -14 2 -24 11 -36 33 -49 42 -60 42 -5 0 -10 4 -10
9 0 5 -8 12 -17 15 -37 14 -82 43 -76 50 3 3 -3 6 -15 6 -11 0 -24 5 -27 10
-4 6 -11 8 -16 5 -5 -4 -9 -2 -9 4 0 6 -11 13 -25 17 -14 3 -25 10 -25 15 0 5
-9 9 -20 9 -11 0 -20 5 -20 10 0 6 -9 10 -20 10 -11 0 -20 5 -20 10 0 6 -7 10
-16 10 -8 0 -22 6 -30 14 -7 8 -22 13 -31 12 -10 -2 -26 6 -35 17 -10 11 -18
17 -18 13 0 -3 -17 2 -37 13 -21 10 -40 19 -43 18 -12 0 -56 16 -60 24 -3 5
-15 10 -25 12 -11 2 -29 7 -40 11 -44 17 -50 19 -60 22 -5 1 -27 9 -48 18 -21
9 -42 14 -47 11 -6 -4 -10 -2 -10 3 0 10 -48 27 -64 23 -4 -1 -14 3 -20 9 -7
5 -16 7 -19 3 -4 -3 -7 -1 -7 6 0 7 -4 10 -8 7 -5 -3 -19 1 -33 7 -13 7 -34
12 -46 11 -13 -1 -23 3 -23 8 0 5 -5 6 -10 3 -6 -4 -17 -2 -25 5 -7 6 -29 12
-49 13 -20 1 -36 6 -36 11 0 4 -9 6 -20 3 -11 -3 -20 -1 -20 3 0 5 -9 7 -20 5
-11 -2 -20 -1 -20 3 0 4 -8 8 -17 9 -10 1 -31 5 -48 8 -16 4 -43 9 -60 12 -16
2 -64 11 -105 18 -41 8 -100 17 -130 20 -117 12 -130 14 -139 19 -5 4 -12 2
-16 -4 -4 -7 -13 -6 -27 1 -22 12 -667 21 -830 12z"/>
</g>
</svg>
